<svg xmlns="http://www.w3.org/2000/svg" viewBox="0 0 400 300" width="400" height="300">
  <rect width="400" height="300" fill="#f5fffe"/>
  <circle cx="320" cy="280" r="70" fill="#0f3744" opacity="0.08"/>
  <!-- Box -->
  <rect x="100" y="50" width="200" height="160" rx="5" fill="white" stroke="#0f3744" stroke-width="2.5"/>
  <!-- Lid flaps -->
  <polygon points="100,50 150,20 350,20 300,50" fill="#0f3744"/>
  <polygon points="100,50 80,35 130,15 150,20" fill="#1e8d8d"/>
  <polygon points="300,50 320,35 270,15 350,20" fill="#1e8d8d"/>
  <!-- Box contents -->
  <circle cx="150" cy="95" r="22" fill="#28afb0" opacity="0.8"/>
  <path d="M150 80 l4 12 l13 0 l-10 8 l4 12 l-11-8 l-11 8 l4-12 l-10-8 l13 0z" fill="white" stroke="#0f3744" stroke-width="1"/>
  <circle cx="250" cy="105" r="22" fill="#28afb0" opacity="0.6"/>
  <rect x="235" y="87" width="30" height="36" fill="white" stroke="#0f3744" stroke-width="1.5" rx="2"/>
  <line x1="242" y1="95" x2="258" y2="95" stroke="#0f3744" stroke-width="1"/>
  <line x1="242" y1="107" x2="258" y2="107" stroke="#0f3744" stroke-width="1"/>
  <line x1="242" y1="119" x2="258" y2="119" stroke="#0f3744" stroke-width="1"/>
  <circle cx="200" cy="160" r="20" fill="#28afb0" opacity="0.7"/>
  <path d="M190 155 h20 v10 h-20z M195 168 h10 M200 165 v6" stroke="#0f3744" stroke-width="1.5" fill="none" stroke-linecap="round"/>
  <!-- Label -->
  <rect x="120" y="200" width="160" height="30" rx="3" fill="#0f3744"/>
  <text x="200" y="215" font-family="Arial,sans-serif" font-size="11" font-weight="bold" fill="#28afb0" text-anchor="middle">Bộ hoạt động cộng đồng</text>
  <!-- Price -->
  <rect x="248" y="242" width="52" height="22" rx="11" fill="#28afb0"/>
  <text x="274" y="257" font-family="Arial,sans-serif" font-size="11" font-weight="bold" fill="white" text-anchor="middle">$5.00</text>
</svg>
