<svg xmlns="http://www.w3.org/2000/svg" viewBox="0 0 400 300" width="400" height="300">
  <rect width="400" height="300" fill="#edf9ff"/>
  <circle cx="325" cy="60" r="82" fill="#28afb0" opacity="0.12"/>
  <rect x="95" y="38" width="210" height="224" rx="12" fill="white" stroke="#0f3744" stroke-width="2"/>
  <rect x="95" y="38" width="210" height="54" rx="12" fill="#0f3744"/>
  <text x="200" y="63" font-family="Arial,sans-serif" font-size="14" font-weight="bold" fill="white" text-anchor="middle">Kiểm soát tiểu đường</text>
  <text x="200" y="82" font-family="Arial,sans-serif" font-size="10" fill="#bce9ea" text-anchor="middle">bằng thực vật</text>
  <circle cx="160" cy="145" r="34" fill="#28afb0" opacity="0.15"/>
  <path d="M150 146c0-18 20-28 28-41 6 12 16 23 16 39 0 15-10 25-24 25s-20-9-20-23z" fill="#28afb0"/>
  <text x="170" y="151" font-family="Arial,sans-serif" font-size="16" font-weight="bold" fill="white" text-anchor="middle">GL</text>
  <rect x="214" y="120" width="54" height="54" rx="10" fill="#f4fbfb" stroke="#28afb0" stroke-width="1.5"/>
  <line x1="228" y1="136" x2="254" y2="136" stroke="#28afb0" stroke-width="2"/>
  <line x1="228" y1="148" x2="258" y2="148" stroke="#28afb0" stroke-width="2"/>
  <line x1="228" y1="160" x2="248" y2="160" stroke="#28afb0" stroke-width="2"/>
  <line x1="132" y1="205" x2="268" y2="205" stroke="#d6ecec" stroke-width="2" stroke-linecap="round"/>
  <line x1="132" y1="222" x2="250" y2="222" stroke="#d6ecec" stroke-width="2" stroke-linecap="round"/>
</svg>