<svg
  xmlns="http://www.w3.org/2000/svg"
  width="423"
  height="193"
  viewBox="0 0 423 193"
  preserveAspectRatio="xMidYMid meet"
  shape-rendering="geometricPrecision"
  text-rendering="geometricPrecision"
  role="img"
  aria-labelledby="logoTitle logoDesc"
>
  <title id="logoTitle">Yhoc nhân ái</title>
  <desc id="logoDesc">Logo tim xanh với biểu tượng người và dòng chữ Yhoc nhân ái, Vi sue khoe, Vi su song.</desc>
  <defs>
    <linearGradient id="gradHeart" x1="0%" y1="0%" x2="100%" y2="0%">
      <stop offset="0%" stop-color="#009fd4" />
      <stop offset="100%" stop-color="#59c02c" />
    </linearGradient>
    <linearGradient id="gradBlue" x1="0%" y1="0%" x2="100%" y2="100%">
      <stop offset="0%" stop-color="#12b8e7" />
      <stop offset="100%" stop-color="#0079c1" />
    </linearGradient>
    <linearGradient id="gradGreen" x1="0%" y1="0%" x2="100%" y2="100%">
      <stop offset="0%" stop-color="#79d63f" />
      <stop offset="100%" stop-color="#00a95a" />
    </linearGradient>
    <linearGradient id="gradTextMain" x1="0%" y1="0%" x2="100%" y2="0%">
      <stop offset="0%" stop-color="#3ac96a" />
      <stop offset="60%" stop-color="#14b8de" />
      <stop offset="100%" stop-color="#0e7fcd" />
    </linearGradient>
    <linearGradient id="gradTagline" x1="0%" y1="0%" x2="100%" y2="0%">
      <stop offset="0%" stop-color="#6fd640" />
      <stop offset="100%" stop-color="#1f9f54" />
    </linearGradient>
  </defs>

  <g transform="translate(0 2)">
    <g transform="translate(108 1)">
      <path
        d="M103 17C87 -3 55 -2 36 20C15 44 18 81 46 104C64 118 84 129 103 145C122 129 142 118 160 104C188 81 191 44 170 20C151 -2 119 -3 103 17Z"
        fill="none"
        stroke="url(#gradHeart)"
        stroke-width="10"
        stroke-linecap="round"
        stroke-linejoin="round"
      />

      <path
        d="M39 72C64 88 79 106 98 139C80 125 55 116 35 103C24 96 17 86 14 73C11 60 15 48 24 39C26 51 31 61 39 72Z"
        fill="url(#gradGreen)"
      />
      <path
        d="M172 74C161 93 145 113 109 139C126 122 136 102 158 88C168 82 176 73 180 61C182 68 182 76 180 84C177 92 175 96 170 103C165 109 157 115 147 119C139 122 128 126 119 131C142 114 155 97 172 74Z"
        fill="url(#gradGreen)"
      />

      <circle cx="105" cy="68" r="8.5" fill="url(#gradBlue)" />
      <path
        d="M62 76C77 84 89 93 105 105C121 93 133 84 148 76C137 91 129 108 118 131C114 140 110 144 105 145C100 144 96 140 92 131C81 108 73 91 62 76Z"
        fill="url(#gradBlue)"
      />

      <g fill="url(#gradGreen)">
        <rect x="128" y="36" width="12" height="36" rx="2.5" />
        <rect x="116" y="48" width="36" height="12" rx="2.5" />
      </g>
    </g>

    <text
      x="211.5"
      y="152"
      text-anchor="middle"
      fill="url(#gradTextMain)"
      stroke="#ffffff"
      stroke-width="1.5"
      paint-order="stroke fill"
      font-size="58"
      font-weight="700"
      font-style="italic"
      letter-spacing="0.2"
      font-family="'Segoe Script', 'Brush Script MT', 'Lucida Handwriting', cursive"
    >
      Yhoc nhân ái
    </text>

    <path
      d="M88 154C138 162 285 162 336 154"
      fill="none"
      stroke="url(#gradTextMain)"
      stroke-width="2.4"
      stroke-linecap="round"
    />

    <text
      x="211.5"
      y="178"
      text-anchor="middle"
      fill="url(#gradTagline)"
      stroke="#ffffff"
      stroke-width="1.2"
      paint-order="stroke fill"
      font-size="20"
      font-weight="700"
      font-style="italic"
      font-family="'Segoe Script', 'Brush Script MT', 'Lucida Handwriting', cursive"
    >
      Vi sue khoe, Vi su song
    </text>
  </g>
</svg>
