<svg
  xmlns="http://www.w3.org/2000/svg"
  width="423"
  height="193"
  viewBox="0 0 423 193"
  preserveAspectRatio="xMidYMid meet"
  shape-rendering="geometricPrecision"
  text-rendering="geometricPrecision"
  role="img"
  aria-labelledby="logoTitle logoDesc"
>
  <title id="logoTitle">Y học nhân ái</title>
  <desc id="logoDesc">Logo Y học nhân ái với biểu tượng trái tim, bàn tay nâng đỡ và dòng chữ Vì sức khỏe, Vì sự sống.</desc>
  <defs>
    <linearGradient id="leftHand" x1="0%" y1="0%" x2="100%" y2="100%">
      <stop offset="0%" stop-color="#63bb1e" />
      <stop offset="100%" stop-color="#0087b9" />
    </linearGradient>
    <linearGradient id="rightHand" x1="0%" y1="0%" x2="100%" y2="100%">
      <stop offset="0%" stop-color="#00a2d4" />
      <stop offset="100%" stop-color="#0048b3" />
    </linearGradient>
    <linearGradient id="heartStroke" x1="0%" y1="0%" x2="100%" y2="0%">
      <stop offset="0%" stop-color="#ff8b1a" />
      <stop offset="100%" stop-color="#e83400" />
    </linearGradient>
    <linearGradient id="innerWarm" x1="0%" y1="0%" x2="100%" y2="100%">
      <stop offset="0%" stop-color="#ff9117" />
      <stop offset="100%" stop-color="#d91000" />
    </linearGradient>
    <linearGradient id="innerCool" x1="0%" y1="0%" x2="100%" y2="100%">
      <stop offset="0%" stop-color="#00a4d8" />
      <stop offset="100%" stop-color="#0070ba" />
    </linearGradient>
  </defs>

  <g transform="translate(32 8)">
    <path
      d="M74 129C39 111 32 77 49 55C58 42 74 35 88 41C75 61 72 88 74 129Z"
      fill="url(#leftHand)"
    />
    <path
      d="M283 129C318 111 325 77 308 55C299 42 283 35 269 41C282 61 285 88 283 129Z"
      fill="url(#rightHand)"
    />

    <path
      d="M178 48C164 30 139 28 124 45C108 63 112 91 134 109C149 121 164 133 178 146C192 133 207 121 222 109C244 91 248 63 232 45C217 28 192 30 178 48Z"
      fill="none"
      stroke="url(#heartStroke)"
      stroke-width="8"
      stroke-linecap="round"
      stroke-linejoin="round"
    />

    <path
      d="M140 105C151 87 162 74 176 62C167 84 168 106 178 124C162 119 149 113 140 105Z"
      fill="url(#innerCool)"
    />
    <path
      d="M176 124C188 101 202 82 223 70C214 95 218 114 230 128C211 126 194 124 176 124Z"
      fill="url(#innerWarm)"
    />

    <circle cx="178" cy="76" r="9" fill="#00a3d8" />

    <g fill="#63bb1e">
      <rect x="260" y="18" width="12" height="36" rx="2" />
      <rect x="248" y="30" width="36" height="12" rx="2" />
      <rect x="219" y="49" width="9" height="26" rx="2" />
      <rect x="211" y="57" width="25" height="9" rx="2" />
    </g>
  </g>

  <text
    x="211.5"
    y="147"
    text-anchor="middle"
    fill="#006d94"
    font-size="44"
    font-weight="700"
    font-style="italic"
    font-family="Georgia, 'Times New Roman', serif"
  >
    Y học nhân ái
  </text>

  <path d="M92 155C151 164 272 164 332 155" fill="none" stroke="#0a86b2" stroke-width="2" />

  <text
    x="211.5"
    y="178"
    text-anchor="middle"
    fill="#198d2f"
    font-size="25"
    font-style="italic"
    font-family="Georgia, 'Times New Roman', serif"
  >
    Vì sức khỏe, Vì sự sống
  </text>
</svg>
