<svg xmlns="http://www.w3.org/2000/svg" viewBox="0 0 400 300" width="400" height="300">
  <rect width="400" height="300" fill="#f0e8ff"/>
  <circle cx="340" cy="80" r="80" fill="#6366f1" opacity="0.15"/>
  <rect x="105" y="40" width="190" height="220" rx="4" fill="white" stroke="#3f46e5" stroke-width="2.5"/>
  <rect x="105" y="40" width="190" height="75" fill="#3f46e5"/>
  <text x="200" y="62" font-family="Georgia,serif" font-size="16" font-weight="bold" fill="white" text-anchor="middle">POWER FOODS</text>
  <text x="200" y="86" font-family="Georgia,serif" font-size="12" fill="#d0d0ff" text-anchor="middle">for the Brain</text>
  <text x="200" y="115" font-family="Arial,sans-serif" font-size="10" fill="#333" text-anchor="middle">Neal M. Barnard, MD</text>
  <!-- Brain icon -->
  <circle cx="200" cy="165" r="28" fill="#6366f1" opacity="0.2" stroke="#3f46e5" stroke-width="1"/>
  <path d="M180 155 q0-15 20-15 q20 0 20 15 q0 10-10 15 q-10 5-10 10 l0 5" stroke="#3f46e5" stroke-width="2" fill="none" stroke-linecap="round"/>
  <circle cx="200" cy="185" r="6" fill="#6366f1"/>
  <!-- Fruits -->
  <path d="M220 200 q8 0 8-8 q0 8 8 0 q0 8-8 8 q-8 0-8-8m16 2 l4-2" stroke="#facc15" stroke-width="2.5" fill="#fef08a" stroke-linecap="round"/>
  <circle cx="160" cy="210" r="10" fill="#fb7185" opacity="0.8" stroke="#f43f5e" stroke-width="1.5"/>
  <!-- Price -->
  <rect x="248" y="242" width="52" height="22" rx="11" fill="#6366f1"/>
  <text x="274" y="257" font-family="Arial,sans-serif" font-size="11" font-weight="bold" fill="white" text-anchor="middle">$16.00</text>
</svg>
